<svg class="icon" width="66" height="58" viewBox="0 0 66 58" fill="none" xmlns="http://www.w3.org/2000/svg">
	<path d="M33 40.5557C37.9706 40.5557 42 36.6755 42 31.8891C42 27.1026 37.9706 23.2224 33 23.2224C28.0294 23.2224 24 27.1026 24 31.8891C24 36.6755 28.0294 40.5557 33 40.5557Z" stroke="white" stroke-width="5"/>
	<path d="M26.334 55H39.666C49.029 55 53.712 55 57.075 52.8767C58.5261 51.9608 59.7758 50.779 60.753 49.3985C63 46.2207 63 41.792 63 32.9405C63 24.0861 63 19.6603 60.753 16.4825C59.7759 15.102 58.5261 13.9201 57.075 13.0043C54.915 11.6379 52.209 11.1497 48.066 10.9763C46.089 10.9763 44.388 9.56078 44.001 7.72634C43.7052 6.38264 42.9368 5.17846 41.8255 4.31732C40.7143 3.45619 39.3284 2.99092 37.902 3.00013H28.098C25.134 3.00013 22.581 4.97902 21.999 7.72634C21.612 9.56078 19.911 10.9763 17.934 10.9763C13.794 11.1497 11.088 11.6408 8.925 13.0043C7.47486 13.9203 6.22612 15.1022 5.25 16.4825C3 19.6603 3 24.0861 3 32.9405C3 41.792 3 46.2178 5.247 49.3985C6.219 50.7736 7.467 51.9551 8.925 52.8767C12.288 55 16.971 55 26.334 55Z" stroke="white" stroke-width="5"/>
	<path d="M54 23.2224H51" stroke="white" stroke-width="5" stroke-linecap="round"/>
</svg>
