<svg class="icon" width="30" height="24" viewBox="0 0 30 24" xmlns="http://www.w3.org/2000/svg">
	<path d="M25.5 0H4.5C3.30653 0 2.16193 0.474106 1.31802 1.31802C0.474106 2.16193 0 3.30653 0 4.5V19.5C0 20.6935 0.474106 21.8381 1.31802 22.682C2.16193 23.5259 3.30653 24 4.5 24H25.5C26.6935 24 27.8381 23.5259 28.682 22.682C29.5259 21.8381 30 20.6935 30 19.5V4.5C30 3.30653 29.5259 2.16193 28.682 1.31802C27.8381 0.474106 26.6935 0 25.5 0ZM24.495 3L15 10.125L5.505 3H24.495ZM25.5 21H4.5C4.10218 21 3.72064 20.842 3.43934 20.5607C3.15804 20.2794 3 19.8978 3 19.5V4.875L14.1 13.2C14.3596 13.3947 14.6754 13.5 15 13.5C15.3246 13.5 15.6404 13.3947 15.9 13.2L27 4.875V19.5C27 19.8978 26.842 20.2794 26.5607 20.5607C26.2794 20.842 25.8978 21 25.5 21Z" fill="white"/>
</svg>
