<svg class="icon" width="24" height="25" viewBox="0 0 24 25" xmlns="http://www.w3.org/2000/svg">
<path fill="white" fill-rule="evenodd" clip-rule="evenodd" d="M18.4615 3.16913H5.53846C4.80402 3.16913 4.09965 3.46089 3.58032 3.98022C3.06099 4.49955 2.76923 5.20392 2.76923 5.93836V15.219L4.54523 13.9267C5.10409 13.5206 5.77839 13.3044 6.46917 13.3097C7.15995 13.315 7.83084 13.5416 8.38338 13.9562L10.0966 15.2411L14.4683 11.4934C15.0693 10.9787 15.8384 10.7025 16.6296 10.7171C17.4207 10.7317 18.179 11.0362 18.7606 11.5728L21.2308 13.8528V5.93836C21.2308 5.20392 20.939 4.49955 20.4197 3.98022C19.9003 3.46089 19.196 3.16913 18.4615 3.16913ZM24 17.0116V5.93836C24 4.46947 23.4165 3.06074 22.3778 2.02208C21.3392 0.983417 19.9304 0.399902 18.4615 0.399902H5.53846C4.06957 0.399902 2.66084 0.983417 1.62218 2.02208C0.583515 3.06074 0 4.46947 0 5.93836V18.8614C0 20.3303 0.583515 21.7391 1.62218 22.7777C2.66084 23.8164 4.06957 24.3999 5.53846 24.3999H18.4615C19.9304 24.3999 21.3392 23.8164 22.3778 22.7777C23.4165 21.7391 24 20.3303 24 18.8614V17.0116ZM21.2308 17.6208L16.8831 13.6073C16.8 13.5307 16.6917 13.4873 16.5787 13.4853C16.4658 13.4832 16.356 13.5227 16.2702 13.5962L11.0548 18.0676L10.2111 18.7913L9.32308 18.1248L6.72 16.1734C6.64118 16.1147 6.54567 16.0827 6.44737 16.082C6.34908 16.0814 6.25315 16.1121 6.17354 16.1697L2.76923 18.6417V18.8614C2.76923 19.5959 3.06099 20.3003 3.58032 20.8196C4.09965 21.3389 4.80402 21.6307 5.53846 21.6307H18.4615C19.196 21.6307 19.9003 21.3389 20.4197 20.8196C20.939 20.3003 21.2308 19.5959 21.2308 18.8614V17.6208ZM11.0769 8.70759C11.0769 9.44204 10.7852 10.1464 10.2658 10.6657C9.7465 11.1851 9.04214 11.4768 8.30769 11.4768C7.57325 11.4768 6.86888 11.1851 6.34955 10.6657C5.83022 10.1464 5.53846 9.44204 5.53846 8.70759C5.53846 7.97315 5.83022 7.26878 6.34955 6.74945C6.86888 6.23012 7.57325 5.93836 8.30769 5.93836C9.04214 5.93836 9.7465 6.23012 10.2658 6.74945C10.7852 7.26878 11.0769 7.97315 11.0769 8.70759Z" />
</svg>
