<svg class="hidden-icon icon" width="31" height="21" viewBox="0 0 31 21" fill="none" xmlns="http://www.w3.org/2000/svg">
	<path d="M15.9293 5.96777C14.742 5.97559 13.6055 6.44966 12.7659 7.28736C11.9263 8.12505 11.4512 9.25895 11.4434 10.4436C11.4434 12.8934 13.474 14.9194 15.9293 14.9194C18.3831 14.9194 20.4152 12.8934 20.4152 10.4436C20.4152 7.99532 18.3831 5.96777 15.9293 5.96777Z" fill="white" />
	<path d="M15.9303 0C4.51663 0 1.08639 9.87219 1.05499 9.97215L0.896484 10.4436L1.05349 10.9151C1.08639 11.015 4.51663 20.8872 15.9303 20.8872C27.3441 20.8872 30.7743 11.015 30.8057 10.9151L30.9642 10.4436L30.8072 9.97215C30.7743 9.87219 27.3441 0 15.9303 0ZM15.9303 17.9033C7.92893 17.9033 4.82915 12.1653 4.07851 10.4436C4.83214 8.71593 7.93342 2.98389 15.9303 2.98389C23.9318 2.98389 27.0315 8.7219 27.7822 10.4436C27.0285 12.1713 23.9273 17.9033 15.9303 17.9033Z" fill="white" />
	<line x1="2.36865" y1="20.911" x2="29.911" y2="1.63135" stroke="white" stroke-width="3" stroke-linecap="round" />
</svg>