<svg class="icon" width="38" height="38" viewBox="0 0 38 38" xmlns="http://www.w3.org/2000/svg">
	<path d="M34.2233 15.1998C34.2233 14.6958 34.0232 14.2126 33.6669 13.8562C33.3105 13.4999 32.8273 13.2997 32.3233 13.2997C31.8194 13.2997 31.3362 13.4999 30.9798 13.8562C30.6235 14.2126 30.4233 14.6958 30.4233 15.1998H34.2233ZM7.62335 15.1998C7.62335 14.6958 7.42317 14.2126 7.06685 13.8562C6.71053 13.4999 6.22726 13.2997 5.72335 13.2997C5.21944 13.2997 4.73616 13.4999 4.37984 13.8562C4.02353 14.2126 3.82335 14.6958 3.82335 15.1998H7.62335ZM34.78 20.3431C35.1384 20.6892 35.6183 20.8807 36.1165 20.8764C36.6147 20.8721 37.0912 20.6722 37.4435 20.32C37.7958 19.9677 37.9956 19.4911 37.9999 18.993C38.0043 18.4948 37.8128 18.0148 37.4667 17.6565L34.78 20.3431ZM19.0233 1.89961L20.3666 0.5563C20.0103 0.200101 19.5272 0 19.0233 0C18.5195 0 18.0364 0.200101 17.68 0.5563L19.0233 1.89961ZM0.580048 17.6565C0.398578 17.8318 0.253832 18.0414 0.154255 18.2732C0.0546779 18.505 0.00226399 18.7544 7.17378e-05 19.0066C-0.00212051 19.2589 0.0459528 19.5091 0.141486 19.7426C0.23702 19.9761 0.378101 20.1883 0.556497 20.3667C0.734893 20.5451 0.947032 20.6861 1.18053 20.7817C1.41404 20.8772 1.66423 20.9253 1.91651 20.9231C2.16879 20.9209 2.41811 20.8685 2.64992 20.7689C2.88172 20.6693 3.09138 20.5246 3.26665 20.3431L0.580048 17.6565ZM9.52335 38H28.5233V34.2H9.52335V38ZM34.2233 32.2999V15.1998H30.4233V32.2999H34.2233ZM7.62335 32.2999V15.1998H3.82335V32.2999H7.62335ZM37.4667 17.6565L20.3666 0.5563L17.68 3.24293L34.78 20.3431L37.4667 17.6565ZM17.68 0.5563L0.580048 17.6565L3.26665 20.3431L20.3666 3.24293L17.68 0.5563ZM28.5233 38C30.0351 38 31.4849 37.3995 32.5539 36.3305C33.6228 35.2615 34.2233 33.8117 34.2233 32.2999H30.4233C30.4233 32.8039 30.2232 33.2871 29.8669 33.6435C29.5105 33.9998 29.0273 34.2 28.5233 34.2V38ZM9.52335 34.2C9.01944 34.2 8.53616 33.9998 8.17984 33.6435C7.82353 33.2871 7.62335 32.8039 7.62335 32.2999H3.82335C3.82335 33.8117 4.42388 35.2615 5.49284 36.3305C6.5618 37.3995 8.01161 38 9.52335 38V34.2Z" fill="white"/>
</svg>
