<svg class="icon" width="28" height="25" viewBox="0 0 28 25" xmlns="http://www.w3.org/2000/svg">
<path fill="none" d="M16.6667 6.9998V4.3998C16.6667 3.71024 16.3857 3.04892 15.8856 2.56133C15.3855 2.07373 14.7072 1.7998 14 1.7998H4.66667C3.95942 1.7998 3.28115 2.07373 2.78105 2.56133C2.28095 3.04892 2 3.71024 2 4.3998V19.9998C2 20.6894 2.28095 21.3507 2.78105 21.8383C3.28115 22.3259 3.95942 22.5998 4.66667 22.5998H14C14.7072 22.5998 15.3855 22.3259 15.8856 21.8383C16.3857 21.3507 16.6667 20.6894 16.6667 19.9998V17.3998" stroke="white" stroke-width="3.5" stroke-linecap="round" stroke-linejoin="round"/>
<path fill="white" d="M10 12.1998H26M26 12.1998L22 8.2998M26 12.1998L22 16.0998" stroke="white" stroke-width="3.5" stroke-linecap="round" stroke-linejoin="round"/>
</svg>
