<svg class="icon" width="25" height="24" viewBox="0 0 25 24" xmlns="http://www.w3.org/2000/svg">
	<path fill="white" d="M12.7998 24C9.46647 24 6.63314 22.8333 4.2998 20.5C1.96647 18.1667 0.799805 15.3333 0.799805 12C0.799805 8.66667 1.96647 5.83333 4.2998 3.5C6.63314 1.16667 9.46647 0 12.7998 0C13.1109 0 13.4167 0.0111112 13.7171 0.0333335C14.0176 0.0555557 14.3118 0.0888888 14.5998 0.133333C13.6887 0.777778 12.9607 1.61689 12.4158 2.65067C11.8709 3.68444 11.5989 4.80089 11.5998 6C11.5998 8 12.2998 9.7 13.6998 11.1C15.0998 12.5 16.7998 13.2 18.7998 13.2C20.022 13.2 21.1442 12.9276 22.1665 12.3827C23.1887 11.8378 24.022 11.1102 24.6665 10.2C24.7109 10.4889 24.7443 10.7831 24.7665 11.0827C24.7887 11.3822 24.7998 11.688 24.7998 12C24.7998 15.3333 23.6331 18.1667 21.2998 20.5C18.9665 22.8333 16.1331 24 12.7998 24ZM12.7998 21.3333C14.7554 21.3333 16.5109 20.7942 18.0665 19.716C19.622 18.6378 20.7554 17.2324 21.4665 15.5C21.022 15.6111 20.5776 15.7 20.1331 15.7667C19.6887 15.8333 19.2442 15.8667 18.7998 15.8667C16.0665 15.8667 13.7385 14.9053 11.8158 12.9827C9.89314 11.06 8.93225 8.73244 8.93314 6C8.93314 5.55556 8.96647 5.11111 9.03314 4.66667C9.0998 4.22222 9.18869 3.77778 9.2998 3.33333C7.56647 4.04444 6.16069 5.17778 5.08247 6.73333C4.00425 8.28889 3.46558 10.0444 3.46647 12C3.46647 14.5778 4.37758 16.7778 6.19981 18.6C8.02203 20.4222 10.222 21.3333 12.7998 21.3333Z" />
</svg>
