<svg class="icon" width="45" height="48" viewBox="0 0 45 48" fill="none" xmlns="http://www.w3.org/2000/svg">
	<path d="M22.5 25.6146C22.1006 25.6146 21.766 25.4802 21.496 25.2116C21.226 24.943 21.0919 24.6109 21.0938 24.2155V1.39909C21.0938 1.00361 21.2288 0.671564 21.4988 0.402938C21.7688 0.134313 22.1035 0 22.5028 0C22.9022 0 23.236 0.134313 23.5041 0.402938C23.7722 0.671564 23.9063 1.00361 23.9063 1.39909V24.2155C23.9063 24.6128 23.7713 24.9449 23.5013 25.2116C23.2313 25.4784 22.8966 25.6127 22.4972 25.6146M22.5028 48C19.3828 48 16.4578 47.4161 13.7278 46.2483C10.9978 45.0806 8.61566 43.4819 6.58129 41.4523C4.54691 39.4226 2.94004 37.0535 1.76066 34.3449C0.581289 31.6362 -0.00558494 28.7261 4.00514e-05 25.6146C4.00514e-05 22.8779 0.495977 20.2402 1.48785 17.7013C2.47972 15.1624 3.8841 12.8819 5.70097 10.8597C5.95222 10.5296 6.27191 10.3766 6.66003 10.4008C7.04816 10.4251 7.40066 10.593 7.71753 10.9045C7.98378 11.1731 8.09347 11.4828 8.0466 11.8335C7.99972 12.1842 7.85066 12.5256 7.59941 12.8576C6.04504 14.6074 4.85816 16.5839 4.03879 18.787C3.22129 20.9882 2.81254 23.2641 2.81254 25.6146C2.81254 31.071 4.72316 35.7001 8.54441 39.5019C12.3657 43.3037 17.0175 45.2037 22.5 45.2018C27.9825 45.2 32.6353 43.3 36.4584 39.5019C40.2816 35.7039 42.1913 31.0747 42.1875 25.6146C42.1875 23.2715 41.7806 20.992 40.9669 18.7758C40.155 16.5578 38.9606 14.5739 37.3838 12.8241C37.1325 12.5051 36.9825 12.1628 36.9338 11.7971C36.8888 11.4315 36.9975 11.119 37.26 10.8597C37.5694 10.5519 37.9163 10.3952 38.3006 10.3896C38.6813 10.3841 39.0038 10.5407 39.2681 10.8597C41.0944 12.8838 42.5063 15.1605 43.5038 17.6901C44.5013 20.2197 45 22.8611 45 25.6146C45 28.7205 44.4131 31.6297 43.2394 34.3421C42.0656 37.0545 40.4588 39.4254 38.4188 41.4551C36.3788 43.4847 33.9975 45.0824 31.275 46.2483C28.5525 47.4142 25.6275 47.9981 22.5 48" fill="white" stroke="white" stroke-width="2"/>
</svg>
