<svg class="icon" width="24" height="30" viewBox="0 0 24 30" xmlns="http://www.w3.org/2000/svg">
	<path fill="white" d="M12 22.8571C11.2044 22.8571 10.4413 22.5561 9.87868 22.0203C9.31607 21.4845 9 20.7578 9 20C9 18.4143 10.335 17.1429 12 17.1429C12.7956 17.1429 13.5587 17.4439 14.1213 17.9797C14.6839 18.5155 15 19.2422 15 20C15 20.7578 14.6839 21.4845 14.1213 22.0203C13.5587 22.5561 12.7956 22.8571 12 22.8571ZM21 27.1429V12.8571H3V27.1429H21ZM21 10C21.7956 10 22.5587 10.301 23.1213 10.8368C23.6839 11.3727 24 12.0994 24 12.8571V27.1429C24 27.9006 23.6839 28.6273 23.1213 29.1632C22.5587 29.699 21.7956 30 21 30H3C2.20435 30 1.44129 29.699 0.87868 29.1632C0.31607 28.6273 0 27.9006 0 27.1429V12.8571C0 11.2714 1.335 10 3 10H4.5V7.14286C4.5 5.24845 5.29018 3.43164 6.6967 2.09209C8.10322 0.752549 10.0109 0 12 0C12.9849 0 13.9602 0.184756 14.8701 0.543718C15.7801 0.90268 16.6069 1.42882 17.3033 2.09209C17.9997 2.75537 18.5522 3.54279 18.9291 4.4094C19.306 5.27602 19.5 6.20484 19.5 7.14286V10H21ZM12 2.85714C10.8065 2.85714 9.66193 3.30867 8.81802 4.1124C7.97411 4.91613 7.5 6.00622 7.5 7.14286V10H16.5V7.14286C16.5 6.00622 16.0259 4.91613 15.182 4.1124C14.3381 3.30867 13.1935 2.85714 12 2.85714Z" />
</svg>
