<svg class="icon" width="18" height="30" viewBox="0 0 18 30" xmlns="http://www.w3.org/2000/svg">
	<path fill="white" d="M16.8933 0.785123C16.6449 0.536242 16.3499 0.33879 16.0251 0.204068C15.7003 0.0693461 15.3522 0 15.0006 0C14.649 0 14.3008 0.0693461 13.976 0.204068C13.6512 0.33879 13.3562 0.536242 13.1079 0.785123L0.785123 13.1079C0.536242 13.3562 0.33879 13.6512 0.204068 13.976C0.0693461 14.3008 0 14.649 0 15.0006C0 15.3522 0.0693461 15.7003 0.204068 16.0251C0.33879 16.3499 0.536242 16.6449 0.785123 16.8933L13.1079 29.216C13.3564 29.4646 13.6515 29.6617 13.9762 29.7962C14.301 29.9308 14.6491 30 15.0006 30C15.3521 30 15.7001 29.9308 16.0249 29.7962C16.3496 29.6617 16.6447 29.4646 16.8933 29.216C17.1418 28.9675 17.339 28.6724 17.4735 28.3476C17.608 28.0229 17.6773 27.6748 17.6773 27.3233C17.6773 26.9718 17.608 26.6237 17.4735 26.299C17.339 25.9742 17.1418 25.6792 16.8933 25.4306L6.47667 14.9871L16.8933 4.57054C17.9403 3.52351 17.9135 1.80531 16.8933 0.785123Z" />
</svg>