<svg class="icon" width="28" height="28" viewBox="0 0 28 28" xmlns="http://www.w3.org/2000/svg">
	<path d="M14.0005 17.1995C16.1093 17.1995 17.8188 15.5877 17.8188 13.5995C17.8188 11.6113 16.1093 9.99951 14.0005 9.99951C11.8917 9.99951 10.1821 11.6113 10.1821 13.5995C10.1821 15.5877 11.8917 17.1995 14.0005 17.1995Z" stroke="white" stroke-width="3"/>
	<path fill="none" d="M16.2465 1.78201C15.7793 1.59961 15.1862 1.59961 14 1.59961C12.8138 1.59961 12.2207 1.59961 11.7535 1.78201C11.4445 1.90262 11.1637 2.07948 10.9272 2.30248C10.6906 2.52547 10.5031 2.79023 10.3751 3.08161C10.258 3.34921 10.2109 3.66241 10.1931 4.11721C10.1852 4.446 10.0887 4.76749 9.91287 5.05149C9.73698 5.3355 9.48742 5.5727 9.18762 5.74081C8.8833 5.90166 8.54059 5.98693 8.19171 5.98861C7.84283 5.99029 7.49923 5.90832 7.19318 5.75041C6.76552 5.53681 6.45624 5.41921 6.1495 5.38081C5.48042 5.29785 4.80379 5.46878 4.26833 5.85601C3.86868 6.14761 3.57085 6.63121 2.97773 7.59961C2.38461 8.56801 2.08678 9.05161 2.02187 9.52561C1.97813 9.83815 2.00013 10.1558 2.08661 10.4603C2.1731 10.7648 2.32236 11.0503 2.52589 11.3004C2.71426 11.5308 2.97773 11.724 3.38629 11.9664C3.98832 12.3228 4.37524 12.93 4.37524 13.5996C4.37524 14.2692 3.98832 14.8764 3.38629 15.2316C2.97773 15.4752 2.71299 15.6684 2.52589 15.8988C2.32236 16.1489 2.1731 16.4344 2.08661 16.7389C2.00013 17.0435 1.97813 17.3611 2.02187 17.6736C2.08806 18.1464 2.38461 18.6312 2.97646 19.5996C3.57085 20.568 3.8674 21.0516 4.26833 21.3432C4.53362 21.5351 4.83641 21.6758 5.15941 21.7574C5.4824 21.8389 5.81927 21.8596 6.15077 21.8184C6.45624 21.78 6.76552 21.6624 7.19318 21.4488C7.49923 21.2909 7.84283 21.2089 8.19171 21.2106C8.54059 21.2123 8.8833 21.2976 9.18762 21.4584C9.80237 21.7944 10.1677 22.4124 10.1931 23.082C10.2109 23.538 10.2568 23.85 10.3751 24.1176C10.5031 24.409 10.6906 24.6737 10.9272 24.8967C11.1637 25.1197 11.4445 25.2966 11.7535 25.4172C12.2207 25.5996 12.8138 25.5996 14 25.5996C15.1862 25.5996 15.7793 25.5996 16.2465 25.4172C16.5555 25.2966 16.8363 25.1197 17.0728 24.8967C17.3094 24.6737 17.4969 24.409 17.6249 24.1176C17.742 23.85 17.7891 23.538 17.8069 23.082C17.8323 22.4124 18.1976 21.7932 18.8124 21.4584C19.1167 21.2976 19.4594 21.2123 19.8083 21.2106C20.1572 21.2089 20.5008 21.2909 20.8068 21.4488C21.2345 21.6624 21.5438 21.78 21.8492 21.8184C22.1807 21.8596 22.5176 21.8389 22.8406 21.7574C23.1636 21.6758 23.4664 21.5351 23.7317 21.3432C24.1326 21.0528 24.4292 20.568 25.0223 19.5996C25.6154 18.6312 25.9132 18.1476 25.9781 17.6736C26.0219 17.3611 25.9999 17.0435 25.9134 16.7389C25.8269 16.4344 25.6776 16.1489 25.4741 15.8988C25.2857 15.6684 25.0223 15.4752 24.6137 15.2328C24.3155 15.0619 24.0683 14.8224 23.8953 14.5367C23.7224 14.251 23.6292 13.9286 23.6248 13.5996C23.6248 12.93 24.0117 12.3228 24.6137 11.9676C25.0223 11.724 25.287 11.5308 25.4741 11.3004C25.6776 11.0503 25.8269 10.7648 25.9134 10.4603C25.9999 10.1558 26.0219 9.83815 25.9781 9.52561C25.9119 9.05281 25.6154 8.56801 25.0235 7.59961C24.4292 6.63121 24.1326 6.14761 23.7317 5.85601C23.4664 5.66412 23.1636 5.52339 22.8406 5.44185C22.5176 5.36031 22.1807 5.33957 21.8492 5.38081C21.5438 5.41921 21.2345 5.53681 20.8056 5.75041C20.4997 5.90811 20.1563 5.98996 19.8077 5.98828C19.459 5.9866 19.1165 5.90145 18.8124 5.74081C18.5126 5.5727 18.263 5.3355 18.0871 5.05149C17.9113 4.76749 17.8148 4.446 17.8069 4.11721C17.7891 3.66121 17.7432 3.34921 17.6249 3.08161C17.4969 2.79023 17.3094 2.52547 17.0728 2.30248C16.8363 2.07948 16.5555 1.90262 16.2465 1.78201Z" stroke="white" stroke-width="3"/>
</svg>
