<svg width="37" height="38" viewBox="0 0 37 38" fill="none" xmlns="http://www.w3.org/2000/svg">
<path fill-rule="evenodd" clip-rule="evenodd" d="M4.42621 4.28531C3.03015 5.66278 1.92036 7.30281 1.16073 9.11096C0.401108 10.9191 0.0066538 12.8597 8.34564e-05 14.8209C-0.00648689 16.7821 0.374957 18.7252 1.12245 20.5384C1.86995 22.3516 2.96872 23.9991 4.35552 25.3859C5.74232 26.7727 7.38975 27.8714 9.20294 28.6189C11.0161 29.3664 12.9593 29.7479 14.9205 29.7413C16.8817 29.7347 18.8223 29.3403 20.6304 28.5806C22.4386 27.821 24.0786 26.7112 25.4561 25.3152C28.214 22.52 29.7544 18.7475 29.7413 14.8209C29.7281 10.8942 28.1624 7.13212 25.3859 4.35552C22.6093 1.57893 18.8472 0.0132384 14.9205 8.35652e-05C10.9938 -0.0130713 7.22135 1.52738 4.42621 4.28531ZM21.633 21.492C20.7542 22.3708 19.7109 23.0679 18.5627 23.5435C17.4145 24.0191 16.1839 24.2639 14.9411 24.2639C13.6984 24.2639 12.4677 24.0191 11.3196 23.5435C10.1714 23.0679 9.12811 22.3708 8.24933 21.492C7.37055 20.6133 6.67346 19.57 6.19787 18.4218C5.72228 17.2736 5.47749 16.043 5.47749 14.8002C5.47749 13.5575 5.72228 12.3268 6.19787 11.1787C6.67346 10.0305 7.37055 8.98721 8.24933 8.10843C10.0241 6.33365 12.4312 5.33659 14.9411 5.33659C17.4511 5.33659 19.8582 6.33365 21.633 8.10843C23.4077 9.88321 24.4048 12.2903 24.4048 14.8002C24.4048 17.3102 23.4077 19.7173 21.633 21.492Z" fill="white"/>
<path d="M21.7302 28.0468C21.4003 27.717 21.1386 27.3254 20.9601 26.8944C20.7816 26.4634 20.6897 26.0015 20.6897 25.535C20.6897 25.0685 20.7816 24.6066 20.9601 24.1756C21.1386 23.7446 21.4003 23.353 21.7302 23.0231C22.06 22.6933 22.4516 22.4316 22.8826 22.2531C23.3136 22.0745 23.7755 21.9827 24.242 21.9827C24.7085 21.9827 25.1705 22.0745 25.6014 22.2531C26.0324 22.4316 26.424 22.6933 26.7539 23.0231L35.1228 31.3944C35.462 31.722 35.7325 32.1139 35.9186 32.5471C36.1048 32.9804 36.2027 33.4464 36.2068 33.9179C36.2109 34.3894 36.1211 34.857 35.9425 35.2934C35.764 35.7299 35.5003 36.1264 35.1668 36.4598C34.8334 36.7932 34.4369 37.0569 34.0005 37.2355C33.5641 37.414 33.0964 37.5039 32.6249 37.4998C32.1534 37.4957 31.6874 37.3977 31.2542 37.2116C30.8209 37.0255 30.429 36.755 30.1015 36.4158L21.7302 28.0468Z" fill="white"/>
</svg>
