<svg width="38" height="38" viewBox="0 0 38 38" fill="none" xmlns="http://www.w3.org/2000/svg">
<path d="M19 36C22.3623 36 25.6491 35.003 28.4447 33.135C31.2403 31.267 33.4193 28.612 34.7059 25.5056C35.9926 22.3993 36.3293 18.9811 35.6733 15.6835C35.0174 12.3858 33.3983 9.35668 31.0208 6.97919C28.6433 4.6017 25.6142 2.98261 22.3165 2.32666C19.0189 1.67071 15.6007 2.00737 12.4944 3.29406C9.38804 4.58074 6.733 6.75968 4.86502 9.55531C2.99703 12.3509 2 15.6377 2 19C2 21.8107 2.68 24.4608 3.88889 26.7954L2 36L11.2046 34.1111C13.5392 35.32 16.1912 36 19 36Z" stroke="white" stroke-width="4" stroke-linecap="round" stroke-linejoin="round"/>
</svg>
