<svg width="35" height="38" viewBox="0 0 35 38" fill="none" xmlns="http://www.w3.org/2000/svg">
<path d="M13.5763 2.37452C13.8601 1.67294 14.347 1.07212 14.9746 0.649068C15.6021 0.226012 16.3417 0 17.0985 0C17.8553 0 18.5949 0.226012 19.2224 0.649068C19.85 1.07212 20.3369 1.67294 20.6207 2.37452C23.4301 3.14713 25.9081 4.82062 27.6742 7.13795C29.4404 9.45529 30.397 12.2883 30.3971 15.202V24.1253L33.8775 29.346C34.0684 29.6321 34.1781 29.9647 34.1947 30.3082C34.2114 30.6517 34.1345 30.9934 33.9723 31.2966C33.81 31.5999 33.5685 31.8534 33.2734 32.0302C32.9783 32.2069 32.6408 32.3002 32.2969 32.3002H23.6813C23.4526 33.8829 22.6612 35.3302 21.4523 36.377C20.2433 37.4238 18.6977 38 17.0985 38C15.4993 38 13.9537 37.4238 12.7447 36.377C11.5358 35.3302 10.7444 33.8829 10.5157 32.3002H1.90009C1.55614 32.3002 1.21863 32.2069 0.92357 32.0302C0.628509 31.8534 0.386962 31.5999 0.2247 31.2966C0.0624388 30.9934 -0.0144494 30.6517 0.00223768 30.3082C0.0189248 29.9647 0.128561 29.6321 0.319451 29.346L3.79989 24.1253V15.202C3.79989 9.07701 7.94145 3.91715 13.5763 2.37452ZM14.4122 32.3002C14.6084 32.8561 14.9722 33.3376 15.4535 33.6781C15.9348 34.0186 16.5099 34.2015 17.0994 34.2015C17.689 34.2015 18.2641 34.0186 18.7454 33.6781C19.2267 33.3376 19.5905 32.8561 19.7867 32.3002H14.4122ZM17.0985 5.70297C14.5792 5.70297 12.1631 6.70375 10.3817 8.48516C8.60027 10.2666 7.59949 12.6827 7.59949 15.202V24.701C7.59957 25.0762 7.48851 25.4431 7.28032 25.7554L5.45081 28.5006H28.7443L26.9148 25.7554C26.7072 25.4429 26.5968 25.076 26.5975 24.701V15.202C26.5975 12.6827 25.5967 10.2666 23.8153 8.48516C22.0339 6.70375 19.6178 5.70297 17.0985 5.70297Z" fill="white"/>
</svg>
